<?xml version="1.0" encoding="iso-8859-1"?>
<!-- Generator: Adobe Illustrator 19.0.0, SVG Export Plug-In . SVG Version: 6.00 Build 0)  -->
<svg version="1.1" id="Capa_1" xmlns="http://www.w3.org/2000/svg" xmlns:xlink="http://www.w3.org/1999/xlink" x="0px" y="0px"
	 viewBox="-74 165 463 463" style="enable-background:new -74 165 463 463;" xml:space="preserve">
<g>
	<path d="M334,276.5H-18c-4.142,0-7.5,3.357-7.5,7.5s3.358,7.5,7.5,7.5h8.5v8.5c0,5.882,3.294,11.009,8.133,13.634
		c2.475,57.356,42.538,106.175,98.605,127.037L56.289,549.868c-3.283-0.887-6.73-1.368-10.289-1.368c-21.78,0-39.5,17.72-39.5,39.5
		s17.72,39.5,39.5,39.5c19.216,0,35.262-13.795,38.777-32h176.026l10.175,27.134c1.129,3.011,3.987,4.868,7.023,4.868
		c0.875,0,1.765-0.154,2.632-0.479c3.878-1.454,5.844-5.777,4.389-9.656L218.761,440.67c56.066-20.862,96.128-69.68,98.603-127.035
		c4.841-2.625,8.135-7.752,8.135-13.635v-8.5h8.5c4.142,0,7.5-3.357,7.5-7.5S338.142,276.5,334,276.5z M46,612.5
		c-13.509,0-24.5-10.99-24.5-24.5s10.991-24.5,24.5-24.5s24.5,10.99,24.5,24.5S59.509,612.5,46,612.5z M255.177,580.5H84.777
		c-1.88-9.736-7.341-18.209-14.959-23.986l41.712-111.232c14.709,4.038,30.311,6.219,46.469,6.219
		c16.159,0,31.761-2.181,46.471-6.219L255.177,580.5z M213.499,426.638l-0.477-1.271c-1.454-3.878-5.778-5.844-9.656-4.389
		c-3.878,1.454-5.844,5.777-4.389,9.656l0.203,0.541c-13.057,3.458-26.878,5.325-41.181,5.325c-14.303,0-28.123-1.867-41.18-5.325
		l0.203-0.542c1.455-3.879-0.511-8.202-4.389-9.656c-3.878-1.455-8.202,0.511-9.656,4.389l-0.477,1.272
		C52.752,408.166,17.013,365.645,13.752,315.5h288.495C298.985,365.644,263.247,408.165,213.499,426.638z M310.5,300
		c0,0.275-0.224,0.5-0.5,0.5H6c-0.276,0-0.5-0.225-0.5-0.5v-8.5h305V300z"/>
	<path d="M46,580.5c-1.97,0-3.91,0.8-5.3,2.2c-1.4,1.39-2.2,3.329-2.2,5.3c0,1.97,0.8,3.91,2.2,5.3c1.39,1.4,3.33,2.2,5.3,2.2
		c1.98,0,3.91-0.8,5.3-2.2c1.4-1.39,2.2-3.32,2.2-5.3c0-1.98-0.8-3.91-2.2-5.3C49.91,581.3,47.98,580.5,46,580.5z"/>
	<path d="M158.5,252c0,4.143,3.358,7.5,7.5,7.5s7.5-3.357,7.5-7.5c0-12.631-5.347-19.314-9.644-24.686
		c-3.69-4.612-6.356-7.945-6.356-15.314s2.667-10.702,6.356-15.314c4.296-5.371,9.644-12.055,9.644-24.686
		c0-4.143-3.358-7.5-7.5-7.5s-7.5,3.357-7.5,7.5c0,7.369-2.667,10.702-6.356,15.314c-4.296,5.371-9.644,12.055-9.644,24.686
		s5.347,19.314,9.644,24.686C155.833,241.298,158.5,244.631,158.5,252z"/>
	<path d="M118.5,252c0,4.143,3.358,7.5,7.5,7.5s7.5-3.357,7.5-7.5c0-12.631-5.347-19.314-9.644-24.686
		c-3.69-4.612-6.356-7.945-6.356-15.314c0-5.45,1.439-8.627,3.601-11.72c2.373-3.395,1.544-8.07-1.851-10.443
		c-3.396-2.372-8.071-1.544-10.444,1.852c-2.936,4.2-6.306,10.306-6.306,20.312c0,12.631,5.347,19.314,9.644,24.686
		C115.833,241.298,118.5,244.631,118.5,252z"/>
	<path d="M198.5,252c0,4.143,3.358,7.5,7.5,7.5s7.5-3.357,7.5-7.5c0-12.631-5.347-19.314-9.644-24.686
		c-3.69-4.612-6.356-7.945-6.356-15.314c0-5.45,1.439-8.627,3.601-11.72c2.373-3.395,1.544-8.07-1.851-10.443
		c-3.396-2.372-8.071-1.544-10.444,1.852c-2.936,4.2-6.306,10.306-6.306,20.312c0,12.631,5.347,19.314,9.644,24.686
		C195.833,241.298,198.5,244.631,198.5,252z"/>
	<path d="M173.987,418.581c0.288,0,0.58-0.017,0.873-0.051c29.047-3.368,56.131-15.591,76.263-34.417
		c3.025-2.829,3.185-7.575,0.355-10.601c-2.83-3.025-7.576-3.185-10.601-0.354c-17.805,16.649-41.864,27.471-67.746,30.472
		c-4.115,0.478-7.063,4.199-6.586,8.314C166.99,415.765,170.231,418.581,173.987,418.581z"/>
	<path d="M260.565,362.423c1.211,0.73,2.546,1.078,3.865,1.078c2.542,0,5.022-1.293,6.431-3.629
		c3.328-5.521,6.138-11.322,8.353-17.245c1.451-3.88-0.518-8.201-4.398-9.651c-3.878-1.45-8.201,0.519-9.652,4.397
		c-1.892,5.06-4.297,10.024-7.149,14.755C255.876,355.676,257.018,360.285,260.565,362.423z"/>
</g>
</svg>
