<?xml version="1.0" encoding="iso-8859-1"?>
<!-- Generator: Adobe Illustrator 18.0.0, SVG Export Plug-In . SVG Version: 6.00 Build 0)  -->
<!DOCTYPE svg PUBLIC "-//W3C//DTD SVG 1.1//EN" "http://www.w3.org/Graphics/SVG/1.1/DTD/svg11.dtd">
<svg version="1.1" id="Capa_1" xmlns="http://www.w3.org/2000/svg" xmlns:xlink="http://www.w3.org/1999/xlink" x="0px" y="0px"
	 viewBox="0 0 297.502 297.502" style="enable-background:new 0 0 297.502 297.502;" xml:space="preserve">
<g>
	<g id="XMLID_10_">
		<g>
			<path style="fill:#911716;" d="M92.311,153.392h137.8c-4.89,33.64-33.92,59.56-68.9,59.56
				C126.241,212.952,97.201,187.032,92.311,153.392z"/>
			<path style="fill:#DE6051;" d="M177.281,34.112l-97.45,97.44c-8.94-11.95-13.78-26.41-13.78-41.61
				c0-18.59,7.24-36.08,20.39-49.23c13.58-13.57,31.4-20.36,49.23-20.36C150.331,20.352,164.991,24.942,177.281,34.112z"/>
			<path d="M251.061,284.002c1.76,5.28-1.09,10.97-6.36,12.73c-1.06,0.35-2.13,0.52-3.18,0.52c-4.22,0-8.14-2.67-9.55-6.88
				l-23.58-70.73c-13.71,8.51-29.88,13.43-47.18,13.43c-17.08,0-33.06-4.79-46.67-13.11l-23.47,70.41
				c-1.41,4.21-5.33,6.88-9.55,6.88c-1.05,0-2.12-0.17-3.18-0.52c-5.27-1.76-8.12-7.45-6.36-12.73l25.76-77.28
				c-14.04-14.06-23.45-32.74-25.73-53.53c-16.82-16.93-26.09-39.37-26.09-63.25c0-21.1,7.25-41.1,20.55-57.15l-3.37-3.37
				c-3.93-3.93-3.93-10.3,0-14.23s10.3-3.93,14.23,0l3.63,3.63c35.17-27.09,85.97-24.55,118.18,7.66c3.93,3.93,3.93,10.3,0,14.23
				l-92.55,92.55h134.31c5.56,0,10.06,4.51,10.06,10.06c0,24.49-9.86,46.72-25.82,62.93L251.061,284.002z M230.111,153.392h-137.8
				c4.89,33.64,33.93,59.56,68.9,59.56C196.191,212.952,225.221,187.032,230.111,153.392z M79.831,131.552l97.45-97.44
				c-12.29-9.17-26.95-13.76-41.61-13.76c-17.83,0-35.65,6.79-49.23,20.36c-13.15,13.15-20.39,30.64-20.39,49.23
				C66.051,105.142,70.891,119.602,79.831,131.552z"/>
			<path d="M239.001,63.812c0,8.3-2.98,12.91-5.15,16.27c-1.81,2.8-2.9,4.48-2.9,8.63s1.09,5.84,2.9,8.63
				c2.17,3.36,5.15,7.97,5.15,16.28c0,3.89-3.15,7.04-7.04,7.04s-7.05-3.15-7.05-7.04c0-4.15-1.09-5.84-2.89-8.63
				c-2.18-3.37-5.16-7.97-5.16-16.28c0-8.3,2.98-12.91,5.16-16.27c1.8-2.8,2.89-4.48,2.89-8.63c0-3.89,3.16-7.05,7.05-7.05
				S239.001,59.922,239.001,63.812z"/>
			<path d="M205.801,63.812c0,8.3-2.98,12.91-5.16,16.27c-1.8,2.8-2.89,4.48-2.89,8.63s1.09,5.84,2.89,8.63
				c2.18,3.36,5.16,7.97,5.16,16.28c0,3.89-3.16,7.04-7.05,7.04c-3.89,0-7.04-3.15-7.04-7.04c0-4.15-1.09-5.84-2.9-8.63
				c-2.17-3.37-5.15-7.97-5.15-16.28c0-8.3,2.98-12.91,5.15-16.27c1.81-2.8,2.9-4.48,2.9-8.63c0-3.89,3.15-7.05,7.04-7.05
				C202.641,56.762,205.801,59.922,205.801,63.812z"/>
		</g>
		<g>
		</g>
	</g>
</g>
<g>
</g>
<g>
</g>
<g>
</g>
<g>
</g>
<g>
</g>
<g>
</g>
<g>
</g>
<g>
</g>
<g>
</g>
<g>
</g>
<g>
</g>
<g>
</g>
<g>
</g>
<g>
</g>
<g>
</g>
</svg>
